<?xml version="1.0" encoding="UTF-8" standalone="no"?>
<svg
   xmlns:dc="http://purl.org/dc/elements/1.1/"
   xmlns:cc="http://creativecommons.org/ns#"
   xmlns:rdf="http://www.w3.org/1999/02/22-rdf-syntax-ns#"
   xmlns:svg="http://www.w3.org/2000/svg"
   xmlns="http://www.w3.org/2000/svg"
   xmlns:sodipodi="http://sodipodi.sourceforge.net/DTD/sodipodi-0.dtd"
   xmlns:inkscape="http://www.inkscape.org/namespaces/inkscape"
   width="20"
   height="20"
   viewBox="0 0 20 20"
   id="svg4145"
   version="1.1"
   sodipodi:docname="bicycle.svg"
   inkscape:version="0.92.2 (unknown)">
  <defs
     id="defs4147" />
  <sodipodi:namedview
     id="base"
     pagecolor="#ffffff"
     bordercolor="#666666"
     borderopacity="1.0"
     showgrid="false"
     units="px"
     inkscape:zoom="5.9"
     inkscape:cx="-31.525424"
     inkscape:cy="20"
     inkscape:window-width="1920"
     inkscape:window-height="981"
     inkscape:window-x="0"
     inkscape:window-y="0"
     inkscape:window-maximized="1"
     inkscape:current-layer="svg4145" />
  <metadata
     id="metadata4150">
    <rdf:RDF>
      <cc:Work
         rdf:about="">
        <dc:format>image/svg+xml</dc:format>
        <dc:type
           rdf:resource="http://purl.org/dc/dcmitype/StillImage" />
        <dc:title />
      </cc:Work>
    </rdf:RDF>
  </metadata>
  <path
     inkscape:connector-curvature="0"
     d="M 6.7929222,12.105158 H 4.2108138 q -0.328931,0 -0.47695,-0.287814 -0.139797,-0.287815 0.05757,-0.550959 l 1.545976,-2.064042 q -0.534513,-0.254922 -1.126589,-0.254922 -1.085472,0 -1.85846,0.772988 -0.772988,0.772988 -0.772988,1.85846 0,1.085473 0.772988,1.858461 0.772988,0.772988 1.85846,0.772988 0.945677,0 1.669324,-0.592076 0.7236504,-0.600299 0.9127854,-1.513084 z M 5.2633928,11.052579 H 6.7929222 Q 6.6449032,10.353601 6.1761772,9.835534 Z m 3.9471724,0 2.3683038,-3.157737 H 7.6316972 l -0.814105,1.085472 q 0.863444,0.846998 1.036133,2.072265 z m 8.4370818,2.384751 q 0.772988,-0.772988 0.772988,-1.858461 0,-1.085472 -0.772988,-1.85846 -0.772988,-0.772988 -1.858461,-0.772988 -0.493395,0 -0.995016,0.197359 l 1.43085,2.138052 q 0.12335,0.189135 0.08224,0.40294 -0.04112,0.213805 -0.22203,0.328931 -0.123348,0.09046 -0.296038,0.09046 -0.287814,0 -0.435833,-0.238474 l -1.43085,-2.138053 q -0.764764,0.781212 -0.764764,1.850238 0,1.085472 0.772988,1.85846 0.772987,0.772988 1.858459,0.772988 1.085473,0 1.858461,-0.772988 z m 0.740094,-4.457016 q 1.085473,1.077249 1.085473,2.598555 0,1.521306 -1.085473,2.606778 -1.077248,1.07725 -2.598555,1.07725 -1.521305,0 -2.606778,-1.07725 -1.07725,-1.085472 -1.07725,-2.606778 0,-0.797657 0.320709,-1.50486 0.328931,-0.715425 0.90456,-1.233491 L 12.795914,8.034637 9.8930972,11.891354 q -0.148019,0.213804 -0.419386,0.213804 h -1.619986 q -0.189136,1.348619 -1.225268,2.253179 -1.0361334,0.90456 -2.4176434,0.90456 -1.521307,0 -2.606779,-1.07725 -1.077249,-1.085472 -1.077249,-2.606778 0,-1.521306 1.077249,-2.598555 1.085472,-1.085472 2.606779,-1.085472 0.937453,0 1.7680044,0.452279 L 7.1054072,6.842262 H 5.2633928 q -0.213806,0 -0.370047,-0.156242 -0.156243,-0.156242 -0.156243,-0.370048 0,-0.213804 0.156243,-0.370047 0.156241,-0.156242 0.370047,-0.156242 H 8.4211312 V 6.842262 H 11.998257 L 11.299278,5.789683 H 9.4737112 q -0.213806,0 -0.370049,-0.156243 -0.156241,-0.156241 -0.156241,-0.370047 0,-0.213806 0.156241,-0.370047 0.156243,-0.156243 0.370049,-0.156243 h 2.1051578 q 0.271369,0 0.435834,0.230252 l 2.195615,3.289311 q 0.748317,-0.361824 1.578868,-0.361824 1.521307,0 2.598555,1.085472 z"
     style="font-style:normal;font-variant:normal;font-weight:normal;font-stretch:normal;font-size:medium;line-height:125%;font-family:FontAwesome;-inkscape-font-specification:'FontAwesome, Normal';text-align:start;letter-spacing:0px;word-spacing:0px;writing-mode:lr-tb;text-anchor:start;fill:#000000;fill-opacity:1;stroke:none;stroke-width:1.17888892px;stroke-linecap:butt;stroke-linejoin:miter;stroke-opacity:1"
     id="icon" />
</svg>
