<?xml version="1.0" encoding="UTF-8" standalone="no"?>
<svg
   xmlns:dc="http://purl.org/dc/elements/1.1/"
   xmlns:cc="http://creativecommons.org/ns#"
   xmlns:rdf="http://www.w3.org/1999/02/22-rdf-syntax-ns#"
   xmlns:svg="http://www.w3.org/2000/svg"
   xmlns="http://www.w3.org/2000/svg"
   xmlns:sodipodi="http://sodipodi.sourceforge.net/DTD/sodipodi-0.dtd"
   xmlns:inkscape="http://www.inkscape.org/namespaces/inkscape"
   width="20"
   height="20"
   viewBox="0 0 20 20"
   id="svg4145"
   version="1.1"
   sodipodi:docname="boat.svg"
   inkscape:version="0.92.2 (unknown)">
  <defs
     id="defs4147" />
  <sodipodi:namedview
     id="base"
     pagecolor="#ffffff"
     bordercolor="#666666"
     borderopacity="1.0"
     showgrid="false"
     units="px"
     inkscape:zoom="5.9"
     inkscape:cx="-31.525424"
     inkscape:cy="20"
     inkscape:window-width="1920"
     inkscape:window-height="981"
     inkscape:window-x="0"
     inkscape:window-y="0"
     inkscape:window-maximized="1"
     inkscape:current-layer="svg4145" />
  <metadata
     id="metadata4150">
    <rdf:RDF>
      <cc:Work
         rdf:about="">
        <dc:format>image/svg+xml</dc:format>
        <dc:type
           rdf:resource="http://purl.org/dc/dcmitype/StillImage" />
        <dc:title />
      </cc:Work>
    </rdf:RDF>
  </metadata>
  <path
     inkscape:connector-curvature="0"
     id="icon"
     d="M 10,2.10471 C 7.868271,7.631413 3.683768,8.889725 3.683768,8.889725 L 10,10.789529 Z m 0,8.684819 H 3.289003 v 0.641492 c 0,0.930433 0.778079,1.763278 1.801113,2.368588 -0.362154,0.123868 -0.729886,0.148037 -1.011584,0.148037 -0.55267,0 -1.421153,-0.157906 -1.973822,-0.789529 v 1.579058 c 0.552669,0.631623 1.421152,0.789529 1.973822,0.789529 0.55267,0 1.421153,-0.157906 1.973822,-0.789529 0.552671,0.631623 1.421153,0.789529 1.973823,0.789529 0.552671,0 1.421152,-0.157906 1.973823,-0.789529 0.552671,0.631623 1.421152,0.789529 1.973823,0.789529 0.55267,0 1.421152,-0.157906 1.973823,-0.789529 0.552669,0.631623 1.421152,0.789529 1.973822,0.789529 0.55267,0 1.421153,-0.157906 1.973822,-0.789529 v -1.579058 c -0.552669,0.631623 -1.421152,0.789529 -1.973822,0.789529 -0.395858,0 -0.94322,-0.09201 -1.431022,-0.370092 1.079388,-0.59227 2.154428,-1.46526 2.936061,-2.788025 h -2.689332 z m 4.737175,0 c 0,0 0.0099,-4.016729 -3.306154,-7.253798 0.631624,4.342409 -0.641492,5.921468 -0.641492,5.921468 z M 2.10471,15.526704 v 1.579057 c 0.552669,0.631624 1.421152,0.789529 1.973822,0.789529 0.55267,0 1.421153,-0.157905 1.973822,-0.789529 0.552671,0.631624 1.421153,0.789529 1.973823,0.789529 0.552671,0 1.421152,-0.157905 1.973823,-0.789529 0.552671,0.631624 1.421152,0.789529 1.973823,0.789529 0.55267,0 1.421152,-0.157905 1.973823,-0.789529 0.552669,0.631624 1.421152,0.789529 1.973822,0.789529 0.55267,0 1.421153,-0.157905 1.973822,-0.789529 v -1.579057 c -0.552669,0.631623 -1.421152,0.789528 -1.973822,0.789528 -0.55267,0 -1.421153,-0.157905 -1.973822,-0.789528 -0.552671,0.631623 -1.421153,0.789528 -1.973823,0.789528 -0.552671,0 -1.421152,-0.157905 -1.973823,-0.789528 -0.552671,0.631623 -1.421152,0.789528 -1.973823,0.789528 -0.55267,0 -1.421152,-0.157905 -1.973823,-0.789528 -0.552669,0.631623 -1.421152,0.789528 -1.973822,0.789528 -0.55267,0 -1.421153,-0.157905 -1.973822,-0.789528 z"
     style="stroke-width:0.78952903" />
</svg>
