<?xml version="1.0" encoding="UTF-8" standalone="no"?>
<svg
   xmlns:dc="http://purl.org/dc/elements/1.1/"
   xmlns:cc="http://creativecommons.org/ns#"
   xmlns:rdf="http://www.w3.org/1999/02/22-rdf-syntax-ns#"
   xmlns:svg="http://www.w3.org/2000/svg"
   xmlns="http://www.w3.org/2000/svg"
   xmlns:sodipodi="http://sodipodi.sourceforge.net/DTD/sodipodi-0.dtd"
   xmlns:inkscape="http://www.inkscape.org/namespaces/inkscape"
   width="20"
   height="20"
   viewBox="0 0 20 20"
   id="svg4145"
   version="1.1"
   sodipodi:docname="bus.svg"
   inkscape:version="0.92.2 (unknown)">
  <defs
     id="defs4147" />
  <sodipodi:namedview
     id="base"
     pagecolor="#ffffff"
     bordercolor="#666666"
     borderopacity="1.0"
     showgrid="false"
     units="px"
     inkscape:zoom="5.9"
     inkscape:cx="-31.525424"
     inkscape:cy="20"
     inkscape:window-width="1920"
     inkscape:window-height="981"
     inkscape:window-x="0"
     inkscape:window-y="0"
     inkscape:window-maximized="1"
     inkscape:current-layer="svg4145" />
  <metadata
     id="metadata4150">
    <rdf:RDF>
      <cc:Work
         rdf:about="">
        <dc:format>image/svg+xml</dc:format>
        <dc:type
           rdf:resource="http://purl.org/dc/dcmitype/StillImage" />
        <dc:title />
      </cc:Work>
    </rdf:RDF>
  </metadata>
  <path
     inkscape:connector-curvature="0"
     d="m 6.143831,13.755651 q 0.347238,-0.347238 0.347238,-0.831544 0,-0.484305 -0.347238,-0.822405 -0.338101,-0.347237 -0.822405,-0.347237 -0.484306,0 -0.831543,0.347237 -0.3381,0.3381 -0.3381,0.822405 0,0.484306 0.3381,0.831544 0.347237,0.338099 0.831543,0.338099 0.484304,0 0.822405,-0.338099 z m 9.357143,0 q 0.347237,-0.347238 0.347237,-0.831544 0,-0.484305 -0.347237,-0.822405 -0.3381,-0.347237 -0.822405,-0.347237 -0.484306,0 -0.831544,0.347237 -0.338099,0.3381 -0.338099,0.822405 0,0.484306 0.338099,0.831544 0.347238,0.338099 0.831544,0.338099 0.484305,0 0.822405,-0.338099 z M 15.427874,9.305524 14.769948,5.796596 Q 14.724258,5.586427 14.559779,5.458496 14.404436,5.321429 14.194265,5.321429 H 5.805732 q -0.21017,0 -0.37465,0.137067 -0.155343,0.127934 -0.201033,0.3381 L 4.572125,9.305524 Q 4.526434,9.57966 4.700062,9.78983 4.873681,10 5.147816,10 h 9.70438 q 0.274136,0 0.447754,-0.21017 0.17362,-0.21017 0.127935,-0.484306 z M 13.234792,4.023856 q 0.127935,-0.127935 0.127935,-0.310686 0,-0.182757 -0.127935,-0.310686 Q 13.106858,3.274549 12.924106,3.274549 H 7.075893 q -0.182757,0 -0.310688,0.127935 -0.127934,0.127934 -0.127934,0.310686 0,0.182757 0.127934,0.310686 0.127935,0.127935 0.310688,0.127935 h 5.848213 q 0.182757,0 0.310686,-0.127935 z m 3.783065,6.314245 v 5.510114 h -1.169644 v 1.169642 q 0,0.484306 -0.347237,0.822405 -0.3381,0.347238 -0.822405,0.347238 -0.484306,0 -0.831544,-0.347238 -0.338099,-0.338099 -0.338099,-0.822405 V 15.848215 H 6.491071 v 1.169642 q 0,0.484306 -0.347238,0.822405 Q 5.805732,18.1875 5.321428,18.1875 4.837122,18.1875 4.489884,17.840262 4.151785,17.502163 4.151785,17.017857 V 15.848215 H 2.982143 v -5.510114 q 0,-1.023438 0.228445,-2.037738 L 4.151785,4.151785 Q 4.234025,3.439035 5.038155,2.899902 5.851423,2.36077 7.139857,2.086636 8.437425,1.8125 9.999995,1.8125 q 1.56257,0 2.851005,0.274136 1.297572,0.274134 2.101701,0.813266 0.813268,0.539133 0.895508,1.251883 l 0.959475,4.148578 q 0.210169,0.93206 0.210169,2.037738 z"
     style="font-style:normal;font-variant:normal;font-weight:normal;font-stretch:normal;font-size:medium;line-height:125%;font-family:FontAwesome;-inkscape-font-specification:'FontAwesome, Normal';text-align:start;letter-spacing:0px;word-spacing:0px;writing-mode:lr-tb;text-anchor:start;fill:#000000;fill-opacity:1;stroke:none;stroke-width:1.31000006px;stroke-linecap:butt;stroke-linejoin:miter;stroke-opacity:1"
     id="icon" />
</svg>
