<?xml version="1.0" encoding="UTF-8" standalone="no"?>
<svg
   xmlns:dc="http://purl.org/dc/elements/1.1/"
   xmlns:cc="http://creativecommons.org/ns#"
   xmlns:rdf="http://www.w3.org/1999/02/22-rdf-syntax-ns#"
   xmlns:svg="http://www.w3.org/2000/svg"
   xmlns="http://www.w3.org/2000/svg"
   xmlns:sodipodi="http://sodipodi.sourceforge.net/DTD/sodipodi-0.dtd"
   xmlns:inkscape="http://www.inkscape.org/namespaces/inkscape"
   width="20"
   height="20"
   viewBox="0 0 20 20"
   id="svg4145"
   version="1.1"
   sodipodi:docname="crane.svg"
   inkscape:version="0.92.2 (unknown)">
  <defs
     id="defs4147" />
  <sodipodi:namedview
     id="base"
     pagecolor="#ffffff"
     bordercolor="#666666"
     borderopacity="1.0"
     showgrid="false"
     units="px"
     inkscape:zoom="5.9"
     inkscape:cx="-31.525424"
     inkscape:cy="20"
     inkscape:window-width="1920"
     inkscape:window-height="981"
     inkscape:window-x="0"
     inkscape:window-y="0"
     inkscape:window-maximized="1"
     inkscape:current-layer="svg4145" />
  <metadata
     id="metadata4150">
    <rdf:RDF>
      <cc:Work
         rdf:about="">
        <dc:format>image/svg+xml</dc:format>
        <dc:type
           rdf:resource="http://purl.org/dc/dcmitype/StillImage" />
        <dc:title />
      </cc:Work>
    </rdf:RDF>
  </metadata>
  <path
     inkscape:connector-curvature="0"
     id="icon"
     d="m 14.334389,2.464255 -4.215308,3.014298 c 0.103994,0.11605 0.203466,0.238883 0.282591,0.376787 l 0.518083,0.91842 2.025231,-1.460051 -1.577796,2.237174 0.494532,0.871321 c 0.140166,0.186132 0.252825,0.393742 0.329689,0.612279 L 16.783506,2.464255 Z M 16.783506,3.78301 15.276357,5.925988 V 10 c 0,0.415973 0.337602,0.753574 0.753575,0.753574 0.415219,0 0.753574,0.338356 0.753574,0.753575 0,0.41522 -0.338355,0.753574 -0.753574,0.753574 -0.41522,0 -0.753575,-0.338354 -0.753575,-0.753574 h -1.507149 c 0,1.385823 1.252064,2.476622 2.684609,2.213625 0.887711,-0.162772 1.616418,-0.879987 1.78974,-1.76619 0.229086,-1.171809 -0.453275,-2.207408 -1.460051,-2.566863 z M 4.7263137,5.478553 c -0.8327,0 -1.507149,0.674449 -1.507149,1.507149 v 3.767872 c 0,0.415973 0.337602,0.753575 0.753575,0.753575 h 0.753574 v 0.753574 h 5.2750213 v -0.753574 h 0.753575 c 0.415973,0 0.753575,-0.337602 0.753575,-0.753575 V 9.246426 L 9.6716457,6.232128 C 9.4026207,5.764158 8.9159997,5.478553 8.3764397,5.478553 Z m 1.507149,1.507149 h 2.142977 l 1.295206,2.260724 h -3.438183 z m -2.260723,6.028596 c -1.248673,0 -2.260723,1.012051 -2.260723,2.260723 0,1.248673 1.01205,2.260724 2.260723,2.260724 H 10.75491 c 1.248673,0 2.260724,-1.012051 2.260724,-2.260724 0,-1.248672 -1.012051,-2.260723 -2.260724,-2.260723 z m 0,1.507149 c 0.415973,0 0.753574,0.337601 0.753574,0.753574 0,0.415974 -0.337601,0.753575 -0.753574,0.753575 -0.415973,0 -0.753575,-0.337601 -0.753575,-0.753575 0,-0.415973 0.337602,-0.753574 0.753575,-0.753574 z m 2.260723,0 c 0.415973,0 0.753575,0.337601 0.753575,0.753574 0,0.415974 -0.337602,0.753575 -0.753575,0.753575 -0.415973,0 -0.753574,-0.337601 -0.753574,-0.753575 0,-0.415973 0.337601,-0.753574 0.753574,-0.753574 z m 2.260723,0 c 0.415974,0 0.753575,0.337601 0.753575,0.753574 0,0.415974 -0.337601,0.753575 -0.753575,0.753575 -0.415973,0 -0.753574,-0.337601 -0.753574,-0.753575 0,-0.415973 0.337601,-0.753574 0.753574,-0.753574 z m 2.2607243,0 c 0.415973,0 0.753575,0.337601 0.753575,0.753574 0,0.415974 -0.337602,0.753575 -0.753575,0.753575 -0.415973,0 -0.753575,-0.337601 -0.753575,-0.753575 0,-0.415973 0.337602,-0.753574 0.753575,-0.753574 z"
     style="stroke-width:0.75357449" />
</svg>
