<?xml version="1.0" encoding="UTF-8" standalone="no"?>
<svg
   xmlns:dc="http://purl.org/dc/elements/1.1/"
   xmlns:cc="http://creativecommons.org/ns#"
   xmlns:rdf="http://www.w3.org/1999/02/22-rdf-syntax-ns#"
   xmlns:svg="http://www.w3.org/2000/svg"
   xmlns="http://www.w3.org/2000/svg"
   xmlns:sodipodi="http://sodipodi.sourceforge.net/DTD/sodipodi-0.dtd"
   xmlns:inkscape="http://www.inkscape.org/namespaces/inkscape"
   width="20"
   height="20"
   viewBox="0 0 20 20"
   id="svg4145"
   version="1.1"
   sodipodi:docname="motorcycle.svg"
   inkscape:version="0.92.2 (unknown)">
  <defs
     id="defs4147" />
  <sodipodi:namedview
     id="base"
     pagecolor="#ffffff"
     bordercolor="#666666"
     borderopacity="1.0"
     showgrid="false"
     units="px"
     inkscape:zoom="5.9"
     inkscape:cx="-31.525424"
     inkscape:cy="20"
     inkscape:window-width="1920"
     inkscape:window-height="981"
     inkscape:window-x="0"
     inkscape:window-y="0"
     inkscape:window-maximized="1"
     inkscape:current-layer="svg4145" />
  <metadata
     id="metadata4150">
    <rdf:RDF>
      <cc:Work
         rdf:about="">
        <dc:format>image/svg+xml</dc:format>
        <dc:type
           rdf:resource="http://purl.org/dc/dcmitype/StillImage" />
        <dc:title />
      </cc:Work>
    </rdf:RDF>
  </metadata>
  <path
     inkscape:connector-curvature="0"
     d="m 19.385596,11.143289 q 0.09803,0.841402 -0.179718,1.625622 -0.277744,0.77605 -0.808726,1.331539 -0.530982,0.55549 -1.298864,0.86591 -0.759712,0.31042 -1.601115,0.253237 -1.315201,-0.08986 -2.287307,-1.021119 -0.963937,-0.931261 -1.09464,-2.238294 -0.09803,-0.906754 0.220562,-1.71548 0.326758,-0.8168961 0.972105,-1.3968921 l -0.579996,-0.874079 q -0.78422,0.653517 -1.233512,1.584778 -0.449293,0.9312611 -0.449293,1.9932251 0,0.220562 -0.15521,0.383941 -0.147041,0.15521 -0.367602,0.15521 H 8.4310274 7.8673694 q -0.187887,1.339709 -1.217175,2.238294 -1.029288,0.898585 -2.401672,0.898585 -1.511257,0 -2.589559,-1.070133 -1.07013305,-1.078303 -1.07013305,-2.589559 0,-1.511257 1.07013305,-2.5813891 1.078302,-1.078303 2.589559,-1.078303 0.620841,0 1.241681,0.220562 l 0.196055,-0.367603 q -1.004781,-0.898585 -2.483362,-0.898585 h -0.522814 q -0.212392,0 -0.367603,-0.15521 -0.155209,-0.15521 -0.155209,-0.367603 0,-0.212392 0.155209,-0.367603 0.155211,-0.15521 0.367603,-0.15521 h 1.045626 q 0.637179,0 1.184499,0.11437 0.54732,0.106195 0.947599,0.31042 0.408447,0.204224 0.588165,0.326759 0.179717,0.114369 0.416617,0.294082 h 4.1825036 0.939431 L 11.290161,5.8171349 H 9.4766544 q -0.24507,0 -0.400279,-0.179717 -0.155211,-0.187886 -0.11437,-0.432955 0.03267,-0.187886 0.187885,-0.310421 0.15521,-0.122534 0.351265,-0.122534 h 2.0667456 q 0.269576,0 0.432955,0.228731 l 0.571827,0.85774 0.931261,-0.931261 q 0.155209,-0.15521 0.375771,-0.15521 h 0.825064 q 0.212394,0 0.367603,0.15521 0.155211,0.15521 0.155211,0.367603 v 1.045626 q 0,0.212394 -0.155211,0.367603 -0.155209,0.155211 -0.367603,0.155211 h -1.462243 l 0.939431,1.405061 q 1.070132,-0.514646 2.246463,-0.294084 1.168159,0.212393 1.993225,1.10281 0.825064,0.882247 0.963936,2.0667461 z M 4.2485224,14.18214 q 0.939429,0 1.658298,-0.588164 0.718868,-0.596335 0.906754,-1.503089 h -2.565052 q -0.285914,0 -0.449293,-0.253237 -0.147041,-0.261407 -0.0082,-0.514644 l 1.200837,-2.2628011 q -0.383941,-0.106195 -0.743375,-0.106195 -1.078303,0 -1.846184,0.767882 -0.767882,0.7678811 -0.767882,1.8461841 0,1.078302 0.767882,1.846184 0.767881,0.767881 1.846184,0.767881 z m 9.6557046,-0.767882 q 0.767882,0.767882 1.846184,0.767882 1.078301,0 1.846183,-0.767882 0.767882,-0.767881 0.767882,-1.846184 0,-1.078302 -0.767882,-1.8461841 -0.767882,-0.767881 -1.846183,-0.767881 -0.490137,0 -0.988443,0.196055 l 1.421397,2.1239281 q 0.122535,0.187886 0.0817,0.400279 -0.04085,0.212392 -0.220562,0.326758 -0.122534,0.08986 -0.294082,0.08986 -0.285914,0 -0.432955,-0.236899 L 13.896062,9.7300599 q -0.759713,0.7760511 -0.759713,1.8380151 0,1.078303 0.767882,1.846184 z"
     style="font-style:normal;font-variant:normal;font-weight:normal;font-stretch:normal;font-size:medium;line-height:125%;font-family:FontAwesome;-inkscape-font-specification:'FontAwesome, Normal';text-align:start;letter-spacing:0px;word-spacing:0px;writing-mode:lr-tb;text-anchor:start;fill:#000000;fill-opacity:1;stroke:none;stroke-width:1.17110145px;stroke-linecap:butt;stroke-linejoin:miter;stroke-opacity:1"
     id="icon" />
</svg>
