<?xml version="1.0" encoding="UTF-8" standalone="no"?>
<svg
   xmlns:dc="http://purl.org/dc/elements/1.1/"
   xmlns:cc="http://creativecommons.org/ns#"
   xmlns:rdf="http://www.w3.org/1999/02/22-rdf-syntax-ns#"
   xmlns:svg="http://www.w3.org/2000/svg"
   xmlns="http://www.w3.org/2000/svg"
   xmlns:sodipodi="http://sodipodi.sourceforge.net/DTD/sodipodi-0.dtd"
   xmlns:inkscape="http://www.inkscape.org/namespaces/inkscape"
   width="20"
   height="20"
   viewBox="0 0 20 20"
   id="svg4145"
   version="1.1"
   sodipodi:docname="person.svg"
   inkscape:version="0.92.2 (unknown)">
  <defs
     id="defs4147" />
  <sodipodi:namedview
     id="base"
     pagecolor="#ffffff"
     bordercolor="#666666"
     borderopacity="1.0"
     showgrid="false"
     units="px"
     inkscape:zoom="5.9"
     inkscape:cx="-31.525424"
     inkscape:cy="20"
     inkscape:window-width="1920"
     inkscape:window-height="981"
     inkscape:window-x="0"
     inkscape:window-y="0"
     inkscape:window-maximized="1"
     inkscape:current-layer="svg4145" />
  <metadata
     id="metadata4150">
    <rdf:RDF>
      <cc:Work
         rdf:about="">
        <dc:format>image/svg+xml</dc:format>
        <dc:type
           rdf:resource="http://purl.org/dc/dcmitype/StillImage" />
        <dc:title />
      </cc:Work>
    </rdf:RDF>
  </metadata>
  <path
     inkscape:connector-curvature="0"
     d="m 16.2872,14.941349 q 0,1.070788 -0.618898,1.837041 -0.609072,0.766253 -1.473562,0.766253 H 5.8052545 q -0.86449,0 -1.483387,-0.766253 -0.609073,-0.766253 -0.609073,-1.837041 0,-0.835019 0.07859,-1.571802 0.08841,-0.746605 0.31436,-1.49321 0.225946,-0.756429 0.569778,-1.286911 0.353655,-0.540308 0.923433,-0.874315 0.579601,-0.34383 1.326206,-0.34383 1.286913,1.25744 3.074835,1.25744 1.7879225,0 3.0748355,-1.25744 0.746605,0 1.316383,0.34383 0.579602,0.334007 0.923432,0.874315 0.353655,0.530482 0.579603,1.286911 0.225945,0.746605 0.304535,1.49321 0.08842,0.736783 0.08842,1.571802 z M 12.662235,3.565442 q 1.110084,1.10026 1.110084,2.662237 0,1.561977 -1.110084,2.672061 Q 11.561974,10 9.9999975,10 q -1.561977,0 -2.672062,-1.10026 -1.10026,-1.110084 -1.10026,-2.672061 0,-1.561977 1.10026,-2.662237 1.110085,-1.110085 2.672062,-1.110085 1.5619765,0 2.6622375,1.110085 z"
     style="font-style:normal;font-variant:normal;font-weight:normal;font-stretch:normal;font-size:medium;line-height:125%;font-family:FontAwesome;-inkscape-font-specification:'FontAwesome, Normal';text-align:start;letter-spacing:0px;word-spacing:0px;writing-mode:lr-tb;text-anchor:start;fill:#000000;fill-opacity:1;stroke:none;stroke-width:1.4083333px;stroke-linecap:butt;stroke-linejoin:miter;stroke-opacity:1"
     id="icon" />
</svg>
