<?xml version="1.0" encoding="UTF-8" standalone="no"?>
<svg
   xmlns:dc="http://purl.org/dc/elements/1.1/"
   xmlns:cc="http://creativecommons.org/ns#"
   xmlns:rdf="http://www.w3.org/1999/02/22-rdf-syntax-ns#"
   xmlns:svg="http://www.w3.org/2000/svg"
   xmlns="http://www.w3.org/2000/svg"
   xmlns:sodipodi="http://sodipodi.sourceforge.net/DTD/sodipodi-0.dtd"
   xmlns:inkscape="http://www.inkscape.org/namespaces/inkscape"
   width="20"
   height="20"
   viewBox="0 0 20 20"
   id="svg4145"
   version="1.1"
   sodipodi:docname="pickup.svg"
   inkscape:version="0.92.2 (unknown)">
  <defs
     id="defs4147" />
  <sodipodi:namedview
     id="base"
     pagecolor="#ffffff"
     bordercolor="#666666"
     borderopacity="1.0"
     showgrid="false"
     units="px"
     inkscape:zoom="5.9"
     inkscape:cx="-31.525424"
     inkscape:cy="20"
     inkscape:window-width="1920"
     inkscape:window-height="981"
     inkscape:window-x="0"
     inkscape:window-y="0"
     inkscape:window-maximized="1"
     inkscape:current-layer="svg4145" />
  <metadata
     id="metadata4150">
    <rdf:RDF>
      <cc:Work
         rdf:about="">
        <dc:format>image/svg+xml</dc:format>
        <dc:type
           rdf:resource="http://purl.org/dc/dcmitype/StillImage" />
        <dc:title />
      </cc:Work>
    </rdf:RDF>
  </metadata>
  <path
     inkscape:connector-curvature="0"
     id="icon"
     d="M 7.19017,4.7113925 A 0.8816036,0.8816036 0 0 0 6.501486,5.3725295 L 5.785254,8.2374545 H 2.507119 c -0.969667,0 -1.763031,0.793364 -1.763031,1.7630315 v 2.121146 c 0,0.352606 0.170794,0.622571 0.5234,0.798874 l 1.267178,0.468305 c 0.147037,1.082397 1.047732,1.900767 2.176241,1.900767 1.079857,0 1.946221,-0.750665 2.148694,-1.76303 h 7.162313 c 0.202474,1.012365 1.068837,1.76303 2.148694,1.76303 1.156989,0 2.065191,-0.859994 2.176241,-1.983409 l 0.468305,-0.303022 c 0.264455,-0.176303 0.440758,-0.528909 0.440758,-0.881515 v -1.515104 c 0,-0.352607 -0.253435,-0.6831755 -0.60604,-0.7713275 l -3.966821,-1.34982 -2.176241,-2.727189 -0.0551,-0.08264 -0.02755,0.02755 c -0.446231,-0.66103 -1.205887,-0.99171 -1.900764,-0.99171 H 7.355451 a 0.8816036,0.8816036 0 0 0 -0.08265,0 0.8816036,0.8816036 0 0 0 -0.08264,0 z m 0.853968,1.763031 h 2.479261 c 0.333018,0 0.400363,0.03368 0.495853,0.192832 a 0.8816036,0.8816036 0 0 0 0.0551,0.08264 l 1.184537,1.487557 H 7.603386 l 0.440757,-1.76303 z M 4.710907,12.286916 c 0.440758,0 0.798874,0.358116 0.798874,0.798874 0,0.440758 -0.358116,0.798873 -0.798874,0.798873 -0.440758,0 -0.798873,-0.358115 -0.798873,-0.798873 0,-0.440758 0.358115,-0.798874 0.798873,-0.798874 z m 11.459701,0 c 0.440758,0 0.798874,0.358116 0.798874,0.798874 0,0.440758 -0.358116,0.798873 -0.798874,0.798873 -0.440758,0 -0.798873,-0.358115 -0.798873,-0.798873 0,-0.440758 0.358115,-0.798874 0.798873,-0.798874 z"
     style="stroke-width:0.8815155" />
</svg>
