<?xml version="1.0" encoding="UTF-8" standalone="no"?>
<svg
   xmlns:dc="http://purl.org/dc/elements/1.1/"
   xmlns:cc="http://creativecommons.org/ns#"
   xmlns:rdf="http://www.w3.org/1999/02/22-rdf-syntax-ns#"
   xmlns:svg="http://www.w3.org/2000/svg"
   xmlns="http://www.w3.org/2000/svg"
   xmlns:sodipodi="http://sodipodi.sourceforge.net/DTD/sodipodi-0.dtd"
   xmlns:inkscape="http://www.inkscape.org/namespaces/inkscape"
   width="20"
   height="20"
   viewBox="0 0 20 20"
   id="svg4145"
   version="1.1"
   sodipodi:docname="ship.svg"
   inkscape:version="0.92.2 (unknown)">
  <defs
     id="defs4147" />
  <sodipodi:namedview
     id="base"
     pagecolor="#ffffff"
     bordercolor="#666666"
     borderopacity="1.0"
     showgrid="false"
     units="px"
     inkscape:zoom="5.9"
     inkscape:cx="-31.525424"
     inkscape:cy="20"
     inkscape:window-width="1920"
     inkscape:window-height="981"
     inkscape:window-x="0"
     inkscape:window-y="0"
     inkscape:window-maximized="1"
     inkscape:current-layer="svg4145" />
  <metadata
     id="metadata4150">
    <rdf:RDF>
      <cc:Work
         rdf:about="">
        <dc:format>image/svg+xml</dc:format>
        <dc:type
           rdf:resource="http://purl.org/dc/dcmitype/StillImage" />
        <dc:title />
      </cc:Work>
    </rdf:RDF>
  </metadata>
  <path
     inkscape:connector-curvature="0"
     d="m 16.093541,15.102469 q 0.147112,-0.147112 0.348424,-0.147112 0.201312,0 0.348423,0.147112 l 0.991072,0.991072 -0.696847,0.696847 -0.642648,-0.642647 -0.642648,0.642647 q -0.139369,0.147112 -0.348423,0.147112 -0.209054,0 -0.348424,-0.147112 l -0.642648,-0.642647 -0.642647,0.642647 q -0.147113,0.147112 -0.348424,0.147112 -0.201312,0 -0.348423,-0.147112 l -0.642649,-0.642647 -0.642649,0.642647 q -0.147112,0.147112 -0.348424,0.147112 -0.20131,0 -0.348423,-0.147112 L 10.495535,16.147741 9.852887,16.790388 Q 9.705776,16.9375 9.504464,16.9375 q -0.201312,0 -0.348424,-0.147112 L 8.513393,16.147741 7.870745,16.790388 Q 7.723632,16.9375 7.522321,16.9375 q -0.201312,0 -0.348423,-0.147112 L 6.53125,16.147741 5.888602,16.790388 Q 5.741489,16.9375 5.540178,16.9375 q -0.201311,0 -0.348424,-0.147112 L 4.549106,16.147741 3.906459,16.790388 Q 3.759347,16.9375 3.558035,16.9375 q -0.201311,0 -0.348423,-0.147112 L 2.21854,15.799317 2.915387,15.102469 3.558035,15.745117 4.200683,15.102469 q 0.147113,-0.147112 0.348423,-0.147112 0.201312,0 0.348424,0.147112 l 0.642648,0.642648 0.642649,-0.642648 q 0.147111,-0.147112 0.348423,-0.147112 0.201311,0 0.348423,0.147112 l 0.642648,0.642648 0.642648,-0.642648 q 0.147112,-0.147112 0.348424,-0.147112 0.20131,0 0.348423,0.147112 l 0.642648,0.642648 0.642648,-0.642648 q 0.147112,-0.147112 0.348423,-0.147112 0.201312,0 0.348424,0.147112 l 0.642647,0.642648 0.642648,-0.642648 q 0.147113,-0.147112 0.348425,-0.147112 0.201312,0 0.348424,0.147112 l 0.642648,0.642648 0.642648,-0.642648 q 0.147112,-0.147112 0.348423,-0.147112 0.201311,0 0.348424,0.147112 l 0.642648,0.642648 z M 3.906459,14.808245 q -0.147112,0.147112 -0.348424,0.147112 -0.201311,0 -0.348423,-0.147112 L 2.21854,13.817173 2.915387,13.120327 3.558035,13.755232 4.200683,13.120327 q 0.147113,-0.147112 0.348423,-0.147112 0.201312,0 0.348424,0.147112 l 0.642648,0.634905 0.495536,-0.495536 V 10.991071 L 4.409737,8.559849 Q 4.278111,8.358539 4.355537,8.126256 4.432967,7.88623 4.665247,7.808803 L 6.035713,7.359724 V 5.044643 H 7.026784 V 4.053571 H 9.008926 V 3.0625 h 1.982144 v 0.991071 h 1.982144 v 0.991072 h 0.991071 v 2.315081 l 1.370466,0.449079 q 0.232283,0.07742 0.30971,0.317453 0.07743,0.232283 -0.0542,0.433593 l -1.625977,2.431222 v 2.268625 l 0.147113,-0.139369 q 0.147111,-0.147112 0.348423,-0.147112 0.201311,0 0.348423,0.147112 l 0.642648,0.634905 0.642648,-0.634905 q 0.147112,-0.147112 0.348424,-0.147112 0.201311,0 0.348423,0.147112 l 0.991071,0.991071 -0.696847,0.696847 -0.642647,-0.642648 -0.642648,0.642648 q -0.13937,0.147112 -0.348424,0.147112 -0.209054,0 -0.348423,-0.147112 l -0.642648,-0.642648 -0.642648,0.642648 q -0.147113,0.147112 -0.348423,0.147112 -0.201312,0 -0.348424,-0.147112 l -0.642649,-0.642648 -0.642649,0.642648 q -0.147111,0.147112 -0.348423,0.147112 -0.201311,0 -0.348424,-0.147112 l -0.642647,-0.642648 -0.642648,0.642648 q -0.147112,0.147112 -0.348424,0.147112 -0.201311,0 -0.348423,-0.147112 L 8.51339,14.165597 7.870742,14.808245 q -0.147112,0.147112 -0.348423,0.147112 -0.201312,0 -0.348424,-0.147112 L 6.531252,14.165597 5.888604,14.808245 q -0.147113,0.147112 -0.348424,0.147112 -0.201311,0 -0.348424,-0.147112 L 4.549108,14.165597 3.906461,14.808245 Z M 7.026785,6.035715 V 7.026786 L 10,6.035715 12.973215,7.026786 V 6.035715 H 11.982143 V 5.044643 H 8.017856 v 0.991072 z"
     style="font-style:normal;font-variant:normal;font-weight:normal;font-stretch:normal;font-size:medium;line-height:125%;font-family:FontAwesome;-inkscape-font-specification:'FontAwesome, Normal';text-align:start;letter-spacing:0px;word-spacing:0px;writing-mode:lr-tb;text-anchor:start;fill:#000000;fill-opacity:1;stroke:none;stroke-width:1.11000001px;stroke-linecap:butt;stroke-linejoin:miter;stroke-opacity:1"
     id="icon" />
</svg>
