<?xml version="1.0" encoding="UTF-8" standalone="no"?>
<svg
   xmlns:dc="http://purl.org/dc/elements/1.1/"
   xmlns:cc="http://creativecommons.org/ns#"
   xmlns:rdf="http://www.w3.org/1999/02/22-rdf-syntax-ns#"
   xmlns:svg="http://www.w3.org/2000/svg"
   xmlns="http://www.w3.org/2000/svg"
   xmlns:sodipodi="http://sodipodi.sourceforge.net/DTD/sodipodi-0.dtd"
   xmlns:inkscape="http://www.inkscape.org/namespaces/inkscape"
   width="20"
   height="20"
   viewBox="0 0 20 20"
   id="svg4145"
   version="1.1"
   sodipodi:docname="truck.svg"
   inkscape:version="0.92.2 (unknown)">
  <defs
     id="defs4147" />
  <sodipodi:namedview
     id="base"
     pagecolor="#ffffff"
     bordercolor="#666666"
     borderopacity="1.0"
     showgrid="false"
     units="px"
     inkscape:zoom="5.9"
     inkscape:cx="-31.525424"
     inkscape:cy="20"
     inkscape:window-width="1920"
     inkscape:window-height="981"
     inkscape:window-x="0"
     inkscape:window-y="0"
     inkscape:window-maximized="1"
     inkscape:current-layer="svg4145" />
  <metadata
     id="metadata4150">
    <rdf:RDF>
      <cc:Work
         rdf:about="">
        <dc:format>image/svg+xml</dc:format>
        <dc:type
           rdf:resource="http://purl.org/dc/dcmitype/StillImage" />
        <dc:title />
      </cc:Work>
    </rdf:RDF>
  </metadata>
  <path
     inkscape:connector-curvature="0"
     d="m 7.031389,14.899063 q 0.346033,-0.346032 0.346033,-0.819552 0,-0.473519 -0.346033,-0.819554 -0.346033,-0.346031 -0.819553,-0.346031 -0.473519,0 -0.819552,0.346031 -0.346034,0.346034 -0.346034,0.819554 0,0.47352 0.346034,0.819552 0.346033,0.346033 0.819552,0.346033 0.47352,0 0.819553,-0.346033 z M 3.880665,9.4171685 h 3.496757 v -2.331169 h -1.43877 q -0.118379,0 -0.200335,0.08196 L 3.96262,8.9436565 q -0.08196,0.08196 -0.08196,0.200333 v 0.273185 z m 11.309821,5.4818945 q 0.346034,-0.346032 0.346034,-0.819552 0,-0.473519 -0.346034,-0.819554 -0.346033,-0.346031 -0.819553,-0.346031 -0.473519,0 -0.819552,0.346031 -0.346033,0.346034 -0.346033,0.819554 0,0.47352 0.346033,0.819552 0.346033,0.346033 0.819552,0.346033 0.47352,0 0.819553,-0.346033 z M 17.867691,4.1720345 v 9.3246825 q 0,0.136593 -0.03642,0.245866 -0.03642,0.100168 -0.127491,0.16391 -0.08196,0.06375 -0.145698,0.109267 -0.06374,0.03642 -0.218547,0.05463 -0.145698,0.0091 -0.200336,0.01821 -0.05463,0 -0.236758,0 -0.173018,-0.0091 -0.200336,-0.0091 0,0.965252 -0.682962,1.648211 -0.682959,0.68296 -1.64821,0.68296 -0.96525,0 -1.64821,-0.68296 -0.682958,-0.682916 -0.682958,-1.648169 H 8.543009 q 0,0.965252 -0.682961,1.648211 -0.682959,0.682961 -1.64821,0.682961 -0.96525,0 -1.64821,-0.682961 -0.682961,-0.682958 -0.682961,-1.64821 H 3.297875 q -0.02732,0 -0.209442,0.0091 -0.173016,0 -0.227653,0 -0.05463,-0.0091 -0.209441,-0.01821 -0.145698,-0.01821 -0.20944,-0.05463 -0.06375,-0.04553 -0.154805,-0.109266 -0.08196,-0.06375 -0.118379,-0.163911 -0.03642,-0.109266 -0.03642,-0.245865 0,-0.23676 0.173017,-0.409776 0.173016,-0.173018 0.409776,-0.173018 v -2.913963 q 0,-0.072851 -0.0091,-0.3187145 0,-0.245866 0,-0.346033 0.0091,-0.100168 0.02732,-0.309609 0.01821,-0.218547 0.05463,-0.336927 0.04554,-0.127491 0.127491,-0.282291 0.09106,-0.154803 0.209441,-0.273183 l 1.803014,-1.803015 q 0.173017,-0.173017 0.455308,-0.291397 0.291396,-0.118379 0.537261,-0.118379 h 1.456983 v -1.748377 q 0,-0.23676 0.173016,-0.409776 0.173017,-0.173017 0.409776,-0.173017 h 9.324684 q 0.23676,0 0.409776,0.173017 0.173017,0.173016 0.173017,0.409776 z"
     style="font-style:normal;font-variant:normal;font-weight:normal;font-stretch:normal;font-size:medium;line-height:125%;font-family:FontAwesome;-inkscape-font-specification:'FontAwesome, Normal';text-align:start;letter-spacing:0px;word-spacing:0px;writing-mode:lr-tb;text-anchor:start;fill:#000000;fill-opacity:1;stroke:none;stroke-width:1.30545557px;stroke-linecap:butt;stroke-linejoin:miter;stroke-opacity:1"
     id="icon" />
</svg>
