<?xml version="1.0" encoding="UTF-8" standalone="no"?>
<svg
   xmlns:dc="http://purl.org/dc/elements/1.1/"
   xmlns:cc="http://creativecommons.org/ns#"
   xmlns:rdf="http://www.w3.org/1999/02/22-rdf-syntax-ns#"
   xmlns:svg="http://www.w3.org/2000/svg"
   xmlns="http://www.w3.org/2000/svg"
   xmlns:sodipodi="http://sodipodi.sourceforge.net/DTD/sodipodi-0.dtd"
   xmlns:inkscape="http://www.inkscape.org/namespaces/inkscape"
   width="20"
   height="20"
   viewBox="0 0 20 20"
   id="svg4145"
   version="1.1"
   sodipodi:docname="van.svg"
   inkscape:version="0.92.2 (unknown)">
  <defs
     id="defs4147" />
  <sodipodi:namedview
     id="base"
     pagecolor="#ffffff"
     bordercolor="#666666"
     borderopacity="1.0"
     showgrid="false"
     units="px"
     inkscape:zoom="5.9"
     inkscape:cx="-31.525424"
     inkscape:cy="20"
     inkscape:window-width="1920"
     inkscape:window-height="981"
     inkscape:window-x="0"
     inkscape:window-y="0"
     inkscape:window-maximized="1"
     inkscape:current-layer="svg4145" />
  <metadata
     id="metadata4150">
    <rdf:RDF>
      <cc:Work
         rdf:about="">
        <dc:format>image/svg+xml</dc:format>
        <dc:type
           rdf:resource="http://purl.org/dc/dcmitype/StillImage" />
        <dc:title />
      </cc:Work>
    </rdf:RDF>
  </metadata>
  <path
     inkscape:connector-curvature="0"
     id="icon"
     d="m 2.170006,3.910008 c -0.480239,0 -0.869998,0.38976 -0.869998,0.869999 v 3.479995 4.349995 c 0,0.961349 0.778649,1.739998 1.739997,1.739998 h 0.05438 c 0.202765,0.991229 1.069336,1.739997 2.120622,1.739997 1.051284,0 1.917855,-0.748768 2.120622,-1.739997 h 5.328742 c 0.202766,0.991229 1.069338,1.739997 2.120622,1.739997 1.051286,0 1.917857,-0.748768 2.120622,-1.739997 h 0.05438 c 0.961348,0 1.739997,-0.778649 1.739997,-1.739998 V 9.401876 9.130001 c 0,0 -1.171888,-3.532847 -3.262496,-5.084056 C 15.306127,3.947635 15.138869,3.910008 14.97531,3.910008 H 2.170014 Z m 10.439987,1.739997 h 2.011872 c 0.742109,0.65859 1.37873,1.707808 1.82156,2.609997 h -3.833432 z m -7.39499,7.394991 c 0.479369,0 0.869998,0.39063 0.869998,0.869999 0,0.479369 -0.390629,0.869998 -0.869998,0.869998 -0.47937,0 -0.87,-0.390629 -0.87,-0.869998 0,-0.479369 0.39063,-0.869999 0.87,-0.869999 z m 9.569987,0 c 0.479369,0 0.869999,0.39063 0.869999,0.869999 0,0.479369 -0.39063,0.869998 -0.869999,0.869998 -0.47937,0 -0.869999,-0.390629 -0.869999,-0.869998 0,-0.479369 0.390629,-0.869999 0.869999,-0.869999 z"
     style="stroke-width:0.86999887" />
</svg>
